<!DOCTYPE svg PUBLIC "-//W3C//DTD SVG 20010904//EN" "http://www.w3.org/TR/2001/REC-SVG-20010904/DTD/svg10.dtd">
<svg version="1.0" xmlns="http://www.w3.org/2000/svg" width="1500px" height="1500px" viewBox="0 0 15000 15000" preserveAspectRatio="xMidYMid meet">
<g id="ika-ink-logo" fill="#000000" stroke="none">
 <path d="M6815 14999 c-1104 -72 -2120 -392 -3094 -976 -1465 -879 -2657 -2265 -3248 -3777 -255 -654 -413 -1396 -463 -2171 -13 -206 -13 -745 0 -950 76 -1172 408 -2295 978 -3305 956 -1693 2506 -2950 4342 -3518 446 -138 896 -228 1400 -278 221 -22 866 -30 1123 -15 1902 116 3730 907 4981 2156 1279 1278 2036 2984 2157 4867 15 237 6 936 -15 1158 -166 1727 -833 3240 -1970 4469 -214 230 -433 433 -704 649 -1228 980 -2849 1588 -4507 1692 -187 12 -792 11 -980 -1z m1015 -459 c1305 -90 2710 -613 3865 -1439 746 -533 1309 -1171 1817 -2056 574 -1000 953 -2163 1038 -3190 18 -207 16 -562 -3 -740 -45 -407 -145 -883 -292 -1390 -341 -1173 -757 -1989 -1404 -2755 -211 -249 -580 -609 -846 -822 -894 -719 -1996 -1221 -3328 -1518 -616 -137 -1271 -181 -1832 -125 -715 72 -1489 306 -2374 719 -1299 605 -2396 1631 -3044 2846 -58 110 -344 705 -429 895 -216 481 -307 809 -354 1275 -20 198 -23 726 -5 980 45 647 120 951 341 1384 331 649 406 780 577 1011 556 749 1460 1447 2388 1843 678 289 1427 357 2173 196 622 -134 1216 -445 1632 -855 295 -290 459 -559 549 -899 44 -165 61 -283 68 -460 19 -523 -154 -986 -497 -1330 -263 -263 -584 -403 -1010 -440 -273 -23 -415 -10 -590 56 -219 82 -379 171 -452 252 -64 71 -59 109 19 144 34 15 81 22 197 28 155 9 263 28 315 55 38 19 81 71 81 98 0 35 32 79 92 125 58 44 106 54 149 31 28 -15 78 4 139 52 62 49 84 89 76 140 -3 22 -9 56 -12 78 -11 71 57 171 127 186 40 9 61 45 61 105 0 59 -19 93 -65 116 -47 25 -56 42 -57 112 0 94 16 144 66 202 26 31 44 62 44 76 0 57 -63 128 -123 139 -19 4 -50 0 -76 -9 -89 -32 -152 -12 -243 78 -52 50 -90 191 -58 211 5 3 14 22 19 43 21 72 -20 142 -101 176 -47 20 -81 20 -123 0 -31 -14 -43 -32 -79 -116 -24 -58 -79 -88 -169 -95 -69 -5 -80 -3 -119 20 -41 24 -138 126 -138 145 0 5 -9 21 -21 36 -17 22 -28 26 -69 26 -61 0 -89 -11 -126 -48 -32 -32 -64 -112 -64 -159 0 -67 -93 -154 -185 -173 -68 -14 -158 1 -183 32 -44 52 -110 61 -166 23 -20 -14 -41 -25 -46 -25 -18 0 -68 -51 -84 -85 -10 -20 -22 -63 -27 -96 -25 -155 -125 -250 -281 -266 -157 -15 -211 -91 -182 -256 17 -100 13 -148 -20 -222 -30 -66 -65 -105 -133 -151 -45 -30 -65 -37 -96 -35 -53 3 -138 -39 -175 -87 -52 -66 -75 -122 -80 -198 -4 -72 5 -105 54 -184 22 -36 12 -172 -21 -285 -39 -133 -106 -270 -142 -288 -43 -22 -111 -101 -135 -155 -32 -72 -36 -201 -9 -273 23 -60 82 -135 124 -158 16 -9 44 -51 80 -120 70 -136 90 -198 89 -281 0 -69 -10 -97 -65 -191 -64 -109 -82 -221 -51 -313 22 -65 113 -157 187 -190 74 -32 137 -100 187 -201 71 -144 85 -271 40 -370 -62 -137 -17 -350 96 -455 58 -54 155 -99 238 -111 168 -23 299 -122 370 -279 34 -75 41 -122 26 -175 -12 -43 -11 -48 20 -113 47 -94 179 -226 275 -273 62 -31 77 -34 145 -32 309 8 304 8 360 -11 144 -49 211 -102 264 -210 110 -222 357 -290 566 -156 36 23 50 38 50 55 0 37 45 82 103 102 75 26 309 26 385 0 74 -26 112 -60 112 -102 0 -44 41 -78 127 -105 191 -59 397 -23 474 83 29 39 30 46 24 99 -7 69 5 98 66 153 84 76 254 133 420 142 161 9 192 1 247 -58 51 -55 110 -79 197 -79 63 0 188 31 247 61 99 50 128 89 128 174 0 115 69 213 220 314 117 78 231 122 336 128 73 5 85 3 129 -21 91 -48 164 -29 251 67 27 29 60 75 73 102 l24 48 -18 72 c-21 82 -14 139 28 243 75 185 258 354 368 339 38 -5 47 -1 117 50 149 110 191 172 192 276 0 82 -27 192 -56 226 -72 86 -80 286 -19 496 52 177 104 261 201 319 113 68 175 171 193 321 20 164 -24 293 -132 388 -114 100 -173 274 -184 542 -11 268 52 457 171 514 37 18 50 32 70 75 47 100 59 219 33 343 -22 103 -94 181 -219 236 -75 33 -146 101 -209 200 -116 181 -209 485 -209 686 0 53 4 68 25 93 45 53 68 110 72 178 12 164 -82 368 -241 525 -117 115 -224 157 -310 121 -55 -23 -82 -20 -156 15 -239 113 -626 541 -656 726 -5 30 -1 50 16 83 28 54 24 134 -10 201 -37 73 -144 169 -240 216 -119 59 -203 77 -310 67 -47 -4 -132 -8 -190 -8 -92 0 -117 4 -197 32 -258 88 -526 280 -664 475 -54 77 -74 130 -88 230 -29 206 -285 369 -556 354 -133 -8 -235 -44 -380 -135 -69 -44 -195 -62 -432 -62 -340 0 -638 59 -847 168 -83 44 -170 121 -198 176 -41 83 -99 122 -196 132 -62 7 -159 -9 -206 -33 -17 -9 -57 -43 -90 -77 -119 -120 -470 -324 -596 -346 -30 -5 -171 -32 -313 -60 -262 -53 -376 -65 -384 -43 -5 13 117 106 275 212 834 558 2135 1029 3222 1167 341 43 649 54 940 34z"/>
 </g>

</svg>