<?xml version="1.0" encoding="utf-8"?>
<!-- Generator: Adobe Illustrator 21.0.2, SVG Export Plug-In . SVG Version: 6.00 Build 0)  -->
<svg version="1.1" xmlns="http://www.w3.org/2000/svg" xmlns:xlink="http://www.w3.org/1999/xlink" x="0px" y="0px"
	 viewBox="0 0 1649.7 1631.7" style="enable-background:new 0 0 1649.7 1631.7;" xml:space="preserve">
<style type="text/css">
	.st1{fill:none;stroke:#ffffff;stroke-miterlimit:10;opacity:0.3}
</style>
<g id="Layer_1">
	<circle class="st1" cx="833" cy="814.7" r="19.5"/>
	<circle class="st1" cx="833" cy="814.7" r="133.5"/>
	<circle class="st1" cx="833" cy="814.7" r="247.2"/>
	<circle class="st1" cx="833" cy="814.7" r="360.5"/>
	<circle class="st1" cx="833" cy="814.7" r="474"/>
	<circle class="st1" cx="833" cy="814.7" r="587"/>
	<circle class="st1" cx="833" cy="814.7" r="700.5"/>
	<line class="st1" x1="338.1" y1="319.5" x2="819.3" y2="800.6"/>
	<line class="st1" x1="483" y1="208.4" x2="823.4" y2="797.6"/>
	<line class="st1" x1="651.7" y1="138.5" x2="828.1" y2="795.7"/>
	<line class="st1" x1="832.8" y1="114.7" x2="833.2" y2="795.1"/>
	<line class="st1" x1="1013.8" y1="138.5" x2="838.3" y2="795.9"/>
	<line class="st1" x1="1182.6" y1="208.3" x2="843" y2="797.9"/>
	<line class="st1" x1="1327.5" y1="319.4" x2="847" y2="801.1"/>
	<line class="st1" x1="1438.8" y1="464.2" x2="850" y2="805.2"/>
	<line class="st1" x1="1508.9" y1="632.8" x2="851.9" y2="810"/>
	<line class="st1" x1="1532.9" y1="813.9" x2="852.5" y2="815.1"/>
	<line class="st1" x1="1509.3" y1="995" x2="851.7" y2="820.1"/>
	<line class="st1" x1="1439.7" y1="1163.8" x2="849.7" y2="824.8"/>
	<line class="st1" x1="1328.7" y1="1308.9" x2="846.5" y2="828.8"/>
	<line class="st1" x1="1184.1" y1="1420.3" x2="842.4" y2="831.9"/>
	<line class="st1" x1="1015.5" y1="1490.5" x2="837.6" y2="833.8"/>
	<line class="st1" x1="834.5" y1="1514.8" x2="832.5" y2="834.3"/>
	<line class="st1" x1="653.4" y1="1491.4" x2="827.5" y2="833.6"/>
	<line class="st1" x1="484.5" y1="1421.9" x2="822.8" y2="831.6"/>
	<line class="st1" x1="339.3" y1="1311.2" x2="818.8" y2="828.4"/>
	<line class="st1" x1="227.7" y1="1166.6" x2="815.7" y2="824.3"/>
	<line class="st1" x1="157.3" y1="998.1" x2="813.8" y2="819.5"/>
	<line class="st1" x1="132.8" y1="817.1" x2="813.2" y2="814.4"/>
	<line class="st1" x1="156" y1="636" x2="814" y2="809.4"/>
	<line class="st1" x1="225.3" y1="467" x2="816" y2="804.7"/>
	<line class="st1" x1="132.5" y1="806.8" x2="144.7" y2="806.7"/>
	<line class="st1" x1="132.8" y1="794.8" x2="145" y2="795"/>
	<line class="st1" x1="133.2" y1="782.9" x2="145.4" y2="783.2"/>
	<line class="st1" x1="133.9" y1="770.9" x2="146" y2="771.5"/>
	<line class="st1" x1="134.7" y1="759" x2="146.9" y2="759.7"/>
	<line class="st1" x1="135.8" y1="747" x2="147.9" y2="748"/>
	<line class="st1" x1="137" y1="735.1" x2="149.1" y2="736.3"/>
	<line class="st1" x1="138.5" y1="723.3" x2="150.6" y2="724.6"/>
	<line class="st1" x1="140.1" y1="711.4" x2="152.2" y2="713"/>
	<line class="st1" x1="142" y1="699.6" x2="154" y2="701.4"/>
	<line class="st1" x1="144.1" y1="687.8" x2="156.1" y2="689.8"/>
	<line class="st1" x1="146.3" y1="676" x2="158.3" y2="678.2"/>
	<line class="st1" x1="148.8" y1="664.3" x2="160.7" y2="666.7"/>
	<line class="st1" x1="151.5" y1="652.7" x2="163.4" y2="655.3"/>
	<line class="st1" x1="154.3" y1="641" x2="166.2" y2="643.8"/>
	<line class="st1" x1="157.4" y1="629.5" x2="169.2" y2="632.5"/>
	<line class="st1" x1="160.6" y1="617.9" x2="172.4" y2="621.2"/>
	<line class="st1" x1="164.1" y1="606.5" x2="175.8" y2="609.9"/>
	<line class="st1" x1="167.8" y1="595.1" x2="179.4" y2="598.7"/>
	<line class="st1" x1="171.6" y1="583.7" x2="183.2" y2="587.6"/>
	<line class="st1" x1="175.6" y1="572.5" x2="187.1" y2="576.5"/>
	<line class="st1" x1="179.9" y1="561.3" x2="191.3" y2="565.5"/>
	<line class="st1" x1="184.3" y1="550.2" x2="195.7" y2="554.6"/>
	<line class="st1" x1="188.9" y1="539.1" x2="200.2" y2="543.7"/>
	<line class="st1" x1="193.7" y1="528.1" x2="204.9" y2="532.9"/>
	<line class="st1" x1="198.7" y1="517.3" x2="209.8" y2="522.2"/>
	<line class="st1" x1="203.9" y1="506.5" x2="214.9" y2="511.6"/>
	<line class="st1" x1="209.2" y1="495.8" x2="220.2" y2="501.1"/>
	<line class="st1" x1="214.8" y1="485.2" x2="225.6" y2="490.7"/>
	<line class="st1" x1="220.5" y1="474.6" x2="231.2" y2="480.4"/>
	<line class="st1" x1="226.4" y1="464.2" x2="237" y2="470.1"/>
	<line class="st1" x1="232.5" y1="453.9" x2="243" y2="460"/>
	<line class="st1" x1="238.7" y1="443.7" x2="249.2" y2="450"/>
	<line class="st1" x1="245.1" y1="433.6" x2="255.5" y2="440"/>
	<line class="st1" x1="251.7" y1="423.6" x2="262" y2="430.2"/>
	<line class="st1" x1="258.5" y1="413.7" x2="268.6" y2="420.5"/>
	<line class="st1" x1="265.4" y1="404" x2="275.4" y2="410.9"/>
	<line class="st1" x1="272.5" y1="394.3" x2="282.4" y2="401.5"/>
	<line class="st1" x1="279.8" y1="384.8" x2="289.5" y2="392.1"/>
	<line class="st1" x1="287.2" y1="375.4" x2="296.8" y2="382.9"/>
	<line class="st1" x1="294.8" y1="366.2" x2="304.3" y2="373.8"/>
	<line class="st1" x1="302.5" y1="357" x2="311.9" y2="364.8"/>
	<line class="st1" x1="310.4" y1="348" x2="319.7" y2="356"/>
	<line class="st1" x1="318.5" y1="339.2" x2="327.6" y2="347.3"/>
	<line class="st1" x1="326.7" y1="330.5" x2="335.6" y2="338.7"/>
	<line class="st1" x1="335" y1="321.9" x2="343.8" y2="330.3"/>
	<line class="st1" x1="343.5" y1="313.5" x2="352.2" y2="322"/>
	<line class="st1" x1="352.2" y1="305.2" x2="360.7" y2="313.9"/>
	<line class="st1" x1="360.9" y1="297" x2="369.3" y2="305.9"/>
	<line class="st1" x1="369.9" y1="289" x2="378.1" y2="298"/>
	<line class="st1" x1="378.9" y1="281.2" x2="387" y2="290.3"/>
	<line class="st1" x1="388.1" y1="273.5" x2="396" y2="282.8"/>
	<line class="st1" x1="397.4" y1="266" x2="405.1" y2="275.4"/>
	<line class="st1" x1="406.8" y1="258.6" x2="414.4" y2="268.2"/>
	<line class="st1" x1="416.4" y1="251.4" x2="423.8" y2="261.1"/>
	<line class="st1" x1="426.1" y1="244.4" x2="433.3" y2="254.2"/>
	<line class="st1" x1="435.9" y1="237.5" x2="443" y2="247.4"/>
	<line class="st1" x1="445.8" y1="230.8" x2="452.7" y2="240.9"/>
	<line class="st1" x1="455.8" y1="224.3" x2="462.6" y2="234.4"/>
	<line class="st1" x1="466" y1="217.9" x2="472.5" y2="228.2"/>
	<line class="st1" x1="476.2" y1="211.8" x2="482.6" y2="222.1"/>
	<line class="st1" x1="486.6" y1="205.7" x2="492.8" y2="216.2"/>
	<line class="st1" x1="497" y1="199.9" x2="503.1" y2="210.5"/>
	<line class="st1" x1="507.6" y1="194.3" x2="513.4" y2="205"/>
	<line class="st1" x1="518.2" y1="188.8" x2="523.9" y2="199.6"/>
	<line class="st1" x1="529" y1="183.5" x2="534.5" y2="194.4"/>
	<line class="st1" x1="539.8" y1="178.4" x2="545.1" y2="189.4"/>
	<line class="st1" x1="550.7" y1="173.5" x2="555.8" y2="184.6"/>
	<line class="st1" x1="561.7" y1="168.8" x2="566.6" y2="179.9"/>
	<line class="st1" x1="572.8" y1="164.2" x2="577.5" y2="175.5"/>
	<line class="st1" x1="583.9" y1="159.9" x2="588.5" y2="171.2"/>
	<line class="st1" x1="595.2" y1="155.7" x2="599.5" y2="167.1"/>
	<line class="st1" x1="606.5" y1="151.8" x2="610.6" y2="163.2"/>
	<line class="st1" x1="617.8" y1="148" x2="621.8" y2="159.5"/>
	<line class="st1" x1="629.2" y1="144.4" x2="633" y2="156"/>
	<line class="st1" x1="640.7" y1="141" x2="644.3" y2="152.7"/>
	<line class="st1" x1="652.3" y1="137.8" x2="655.6" y2="149.5"/>
	<line class="st1" x1="663.9" y1="134.8" x2="667" y2="146.6"/>
	<line class="st1" x1="675.5" y1="132.1" x2="678.4" y2="143.9"/>
	<line class="st1" x1="687.2" y1="129.5" x2="689.9" y2="141.3"/>
	<line class="st1" x1="698.9" y1="127.1" x2="701.5" y2="139"/>
	<line class="st1" x1="710.7" y1="124.9" x2="713" y2="136.8"/>
	<line class="st1" x1="722.5" y1="122.9" x2="724.6" y2="134.9"/>
	<line class="st1" x1="734.3" y1="121.1" x2="736.3" y2="133.1"/>
	<line class="st1" x1="746.2" y1="119.5" x2="747.9" y2="131.6"/>
	<line class="st1" x1="758.1" y1="118.2" x2="759.6" y2="130.2"/>
	<line class="st1" x1="770" y1="117" x2="771.3" y2="129.1"/>
	<line class="st1" x1="781.9" y1="116" x2="783" y2="128.1"/>
	<line class="st1" x1="793.9" y1="115.2" x2="794.8" y2="127.4"/>
	<line class="st1" x1="805.8" y1="114.7" x2="806.5" y2="126.8"/>
	<line class="st1" x1="817.8" y1="114.3" x2="818.3" y2="126.5"/>
	<line class="st1" x1="829.8" y1="114.2" x2="830" y2="126.3"/>
	<line class="st1" x1="841.7" y1="114.2" x2="841.8" y2="126.4"/>
	<line class="st1" x1="853.7" y1="114.5" x2="853.6" y2="126.6"/>
	<line class="st1" x1="865.7" y1="114.9" x2="865.3" y2="127.1"/>
	<line class="st1" x1="877.6" y1="115.6" x2="877.1" y2="127.8"/>
	<line class="st1" x1="889.6" y1="116.5" x2="888.8" y2="128.6"/>
	<line class="st1" x1="901.5" y1="117.5" x2="900.5" y2="129.7"/>
	<line class="st1" x1="913.4" y1="118.8" x2="912.2" y2="130.9"/>
	<line class="st1" x1="925.3" y1="120.3" x2="923.9" y2="132.4"/>
	<line class="st1" x1="937.1" y1="122" x2="935.5" y2="134"/>
	<line class="st1" x1="948.9" y1="123.8" x2="947.1" y2="135.9"/>
	<line class="st1" x1="960.7" y1="125.9" x2="958.7" y2="137.9"/>
	<line class="st1" x1="972.5" y1="128.2" x2="970.3" y2="140.2"/>
	<line class="st1" x1="984.2" y1="130.7" x2="981.8" y2="142.6"/>
	<line class="st1" x1="995.8" y1="133.4" x2="993.2" y2="145.3"/>
	<line class="st1" x1="1007.5" y1="136.3" x2="1004.6" y2="148.1"/>
	<line class="st1" x1="1019" y1="139.4" x2="1016" y2="151.2"/>
	<line class="st1" x1="1030.5" y1="142.6" x2="1027.3" y2="154.4"/>
	<line class="st1" x1="1042" y1="146.1" x2="1038.6" y2="157.8"/>
	<line class="st1" x1="1053.4" y1="149.8" x2="1049.8" y2="161.4"/>
	<line class="st1" x1="1064.7" y1="153.7" x2="1060.9" y2="165.2"/>
	<line class="st1" x1="1076" y1="157.7" x2="1072" y2="169.2"/>
	<line class="st1" x1="1087.2" y1="162" x2="1082.9" y2="173.4"/>
	<line class="st1" x1="1098.3" y1="166.4" x2="1093.9" y2="177.8"/>
	<line class="st1" x1="1109.3" y1="171" x2="1104.7" y2="182.3"/>
	<line class="st1" x1="1120.3" y1="175.9" x2="1115.5" y2="187.1"/>
	<line class="st1" x1="1131.1" y1="180.9" x2="1126.2" y2="192"/>
	<line class="st1" x1="1141.9" y1="186.1" x2="1136.8" y2="197.1"/>
	<line class="st1" x1="1152.6" y1="191.4" x2="1147.3" y2="202.4"/>
	<line class="st1" x1="1163.2" y1="197" x2="1157.7" y2="207.8"/>
	<line class="st1" x1="1173.7" y1="202.7" x2="1168" y2="213.5"/>
	<line class="st1" x1="1184.1" y1="208.6" x2="1178.2" y2="219.3"/>
	<line class="st1" x1="1194.5" y1="214.7" x2="1188.3" y2="225.3"/>
	<line class="st1" x1="1204.6" y1="221" x2="1198.4" y2="231.4"/>
	<line class="st1" x1="1214.7" y1="227.4" x2="1208.3" y2="237.8"/>
	<line class="st1" x1="1224.7" y1="234.1" x2="1218.1" y2="244.3"/>
	<line class="st1" x1="1234.6" y1="240.8" x2="1227.8" y2="250.9"/>
	<line class="st1" x1="1244.3" y1="247.8" x2="1237.3" y2="257.8"/>
	<line class="st1" x1="1253.9" y1="254.9" x2="1246.8" y2="264.8"/>
	<line class="st1" x1="1263.5" y1="262.2" x2="1256.1" y2="271.9"/>
	<line class="st1" x1="1272.8" y1="269.6" x2="1265.3" y2="279.2"/>
	<line class="st1" x1="1282.1" y1="277.2" x2="1274.4" y2="286.7"/>
	<line class="st1" x1="1291.2" y1="285" x2="1283.4" y2="294.3"/>
	<line class="st1" x1="1300.2" y1="292.9" x2="1292.2" y2="302.1"/>
	<line class="st1" x1="1309" y1="300.9" x2="1300.9" y2="310"/>
	<line class="st1" x1="1317.7" y1="309.2" x2="1309.5" y2="318.1"/>
	<line class="st1" x1="1326.3" y1="317.5" x2="1317.9" y2="326.3"/>
	<line class="st1" x1="1334.7" y1="326" x2="1326.1" y2="334.7"/>
	<line class="st1" x1="1343" y1="334.7" x2="1334.3" y2="343.2"/>
	<line class="st1" x1="1351.1" y1="343.5" x2="1342.3" y2="351.8"/>
	<line class="st1" x1="1359.1" y1="352.4" x2="1350.1" y2="360.6"/>
	<line class="st1" x1="1366.9" y1="361.5" x2="1357.8" y2="369.5"/>
	<line class="st1" x1="1374.6" y1="370.7" x2="1365.3" y2="378.5"/>
	<line class="st1" x1="1382.1" y1="380" x2="1372.7" y2="387.7"/>
	<line class="st1" x1="1389.4" y1="389.4" x2="1379.9" y2="397"/>
	<line class="st1" x1="1396.6" y1="399" x2="1386.9" y2="406.4"/>
	<line class="st1" x1="1403.6" y1="408.7" x2="1393.8" y2="415.9"/>
	<line class="st1" x1="1410.5" y1="418.5" x2="1400.6" y2="425.6"/>
	<line class="st1" x1="1417.2" y1="428.4" x2="1407.1" y2="435.3"/>
	<line class="st1" x1="1423.7" y1="438.5" x2="1413.5" y2="445.2"/>
	<line class="st1" x1="1430" y1="448.6" x2="1419.8" y2="455.2"/>
	<line class="st1" x1="1436.2" y1="458.9" x2="1425.8" y2="465.3"/>
	<line class="st1" x1="1442.2" y1="469.3" x2="1431.7" y2="475.5"/>
	<line class="st1" x1="1448" y1="479.7" x2="1437.4" y2="485.7"/>
	<line class="st1" x1="1453.6" y1="490.3" x2="1442.9" y2="496.1"/>
	<line class="st1" x1="1459.1" y1="500.9" x2="1448.3" y2="506.6"/>
	<line class="st1" x1="1464.4" y1="511.7" x2="1453.5" y2="517.2"/>
	<line class="st1" x1="1469.4" y1="522.5" x2="1458.4" y2="527.8"/>
	<line class="st1" x1="1474.3" y1="533.5" x2="1463.3" y2="538.5"/>
	<line class="st1" x1="1479" y1="544.5" x2="1467.9" y2="549.4"/>
	<line class="st1" x1="1483.6" y1="555.5" x2="1472.3" y2="560.2"/>
	<line class="st1" x1="1487.9" y1="566.7" x2="1476.6" y2="571.2"/>
	<line class="st1" x1="1492" y1="577.9" x2="1480.6" y2="582.3"/>
	<line class="st1" x1="1496" y1="589.2" x2="1484.5" y2="593.4"/>
	<line class="st1" x1="1499.7" y1="600.6" x2="1488.2" y2="604.5"/>
	<line class="st1" x1="1503.3" y1="612" x2="1491.7" y2="615.8"/>
	<line class="st1" x1="1506.7" y1="623.5" x2="1495" y2="627"/>
	<line class="st1" x1="1509.8" y1="635.1" x2="1498.1" y2="638.4"/>
	<line class="st1" x1="1512.8" y1="646.7" x2="1501" y2="649.8"/>
	<line class="st1" x1="1515.6" y1="658.3" x2="1503.7" y2="661.2"/>
	<line class="st1" x1="1518.1" y1="670" x2="1506.2" y2="672.7"/>
	<line class="st1" x1="1520.5" y1="681.7" x2="1508.6" y2="684.2"/>
	<line class="st1" x1="1522.7" y1="693.5" x2="1510.7" y2="695.8"/>
	<line class="st1" x1="1524.6" y1="705.3" x2="1512.6" y2="707.4"/>
	<line class="st1" x1="1526.4" y1="717.1" x2="1514.4" y2="719.1"/>
	<line class="st1" x1="1528" y1="729" x2="1515.9" y2="730.7"/>
	<line class="st1" x1="1529.3" y1="740.9" x2="1517.2" y2="742.4"/>
	<line class="st1" x1="1530.5" y1="752.8" x2="1518.4" y2="754.1"/>
	<line class="st1" x1="1531.4" y1="764.8" x2="1519.3" y2="765.8"/>
	<line class="st1" x1="1532.2" y1="776.7" x2="1520" y2="777.6"/>
	<line class="st1" x1="1532.7" y1="788.7" x2="1520.6" y2="789.3"/>
	<line class="st1" x1="1533.1" y1="800.6" x2="1520.9" y2="801.1"/>
	<line class="st1" x1="1533.2" y1="812.6" x2="1521" y2="812.8"/>
	<line class="st1" x1="1533.1" y1="824.6" x2="1520.9" y2="824.6"/>
	<line class="st1" x1="1532.9" y1="836.5" x2="1520.7" y2="836.4"/>
	<line class="st1" x1="1532.4" y1="848.5" x2="1520.2" y2="848.1"/>
	<line class="st1" x1="1531.7" y1="860.4" x2="1519.5" y2="859.9"/>
	<line class="st1" x1="1530.8" y1="872.4" x2="1518.6" y2="871.6"/>
	<line class="st1" x1="1529.7" y1="884.3" x2="1517.6" y2="883.3"/>
	<line class="st1" x1="1528.4" y1="896.2" x2="1516.3" y2="895"/>
	<line class="st1" x1="1526.9" y1="908.1" x2="1514.8" y2="906.7"/>
	<line class="st1" x1="1525.2" y1="919.9" x2="1513.1" y2="918.3"/>
	<line class="st1" x1="1523.3" y1="931.7" x2="1511.3" y2="929.9"/>
	<line class="st1" x1="1521.2" y1="943.5" x2="1509.2" y2="941.5"/>
	<line class="st1" x1="1518.9" y1="955.3" x2="1506.9" y2="953"/>
	<line class="st1" x1="1516.4" y1="967" x2="1504.5" y2="964.5"/>
	<line class="st1" x1="1513.7" y1="978.6" x2="1501.8" y2="976"/>
	<line class="st1" x1="1510.8" y1="990.2" x2="1498.9" y2="987.4"/>
	<line class="st1" x1="1507.7" y1="1001.8" x2="1495.9" y2="998.8"/>
	<line class="st1" x1="1504.4" y1="1013.3" x2="1492.6" y2="1010.1"/>
	<line class="st1" x1="1500.9" y1="1024.8" x2="1489.2" y2="1021.3"/>
	<line class="st1" x1="1497.2" y1="1036.2" x2="1485.6" y2="1032.5"/>
	<line class="st1" x1="1493.3" y1="1047.5" x2="1481.8" y2="1043.6"/>
	<line class="st1" x1="1489.2" y1="1058.7" x2="1477.7" y2="1054.7"/>
	<line class="st1" x1="1485" y1="1069.9" x2="1473.6" y2="1065.7"/>
	<line class="st1" x1="1480.5" y1="1081" x2="1469.2" y2="1076.6"/>
	<line class="st1" x1="1475.9" y1="1092" x2="1464.6" y2="1087.4"/>
	<line class="st1" x1="1471" y1="1103" x2="1459.8" y2="1098.2"/>
	<line class="st1" x1="1466" y1="1113.9" x2="1454.9" y2="1108.8"/>
	<line class="st1" x1="1460.8" y1="1124.6" x2="1449.8" y2="1119.4"/>
	<line class="st1" x1="1455.4" y1="1135.3" x2="1444.5" y2="1129.9"/>
	<line class="st1" x1="1449.8" y1="1145.9" x2="1439" y2="1140.3"/>
	<line class="st1" x1="1444.1" y1="1156.4" x2="1433.3" y2="1150.7"/>
	<line class="st1" x1="1438.1" y1="1166.8" x2="1427.5" y2="1160.9"/>
	<line class="st1" x1="1432" y1="1177.1" x2="1421.5" y2="1171"/>
	<line class="st1" x1="1425.7" y1="1187.3" x2="1415.3" y2="1181"/>
	<line class="st1" x1="1419.3" y1="1197.4" x2="1409" y2="1190.9"/>
	<line class="st1" x1="1412.7" y1="1207.3" x2="1402.5" y2="1200.7"/>
	<line class="st1" x1="1405.9" y1="1217.2" x2="1395.8" y2="1210.4"/>
	<line class="st1" x1="1398.9" y1="1226.9" x2="1388.9" y2="1219.9"/>
	<line class="st1" x1="1391.8" y1="1236.5" x2="1381.9" y2="1229.4"/>
	<line class="st1" x1="1384.5" y1="1246" x2="1374.7" y2="1238.7"/>
	<line class="st1" x1="1377" y1="1255.4" x2="1367.4" y2="1247.9"/>
	<line class="st1" x1="1369.4" y1="1264.6" x2="1359.9" y2="1257"/>
	<line class="st1" x1="1361.6" y1="1273.7" x2="1352.3" y2="1265.9"/>
	<line class="st1" x1="1353.7" y1="1282.7" x2="1344.5" y2="1274.7"/>
	<line class="st1" x1="1345.6" y1="1291.5" x2="1336.6" y2="1283.4"/>
	<line class="st1" x1="1337.4" y1="1300.2" x2="1328.5" y2="1291.9"/>
	<line class="st1" x1="1329" y1="1308.8" x2="1320.2" y2="1300.3"/>
	<line class="st1" x1="1320.5" y1="1317.2" x2="1311.9" y2="1308.6"/>
	<line class="st1" x1="1311.8" y1="1325.5" x2="1303.3" y2="1316.7"/>
	<line class="st1" x1="1303" y1="1333.6" x2="1294.7" y2="1324.7"/>
	<line class="st1" x1="1294.1" y1="1341.5" x2="1285.9" y2="1332.5"/>
	<line class="st1" x1="1285" y1="1349.3" x2="1277" y2="1340.2"/>
	<line class="st1" x1="1275.8" y1="1357" x2="1267.9" y2="1347.7"/>
	<line class="st1" x1="1266.5" y1="1364.5" x2="1258.8" y2="1355"/>
	<line class="st1" x1="1257" y1="1371.8" x2="1249.5" y2="1362.2"/>
	<line class="st1" x1="1247.4" y1="1379" x2="1240" y2="1369.3"/>
	<line class="st1" x1="1237.7" y1="1386" x2="1230.5" y2="1376.2"/>
	<line class="st1" x1="1227.9" y1="1392.8" x2="1220.8" y2="1382.9"/>
	<line class="st1" x1="1217.9" y1="1399.5" x2="1211.1" y2="1389.4"/>
	<line class="st1" x1="1207.9" y1="1406" x2="1201.2" y2="1395.8"/>
	<line class="st1" x1="1197.7" y1="1412.3" x2="1191.2" y2="1402"/>
	<line class="st1" x1="1187.5" y1="1418.4" x2="1181.1" y2="1408.1"/>
	<line class="st1" x1="1177.1" y1="1424.4" x2="1170.9" y2="1413.9"/>
	<line class="st1" x1="1166.6" y1="1430.2" x2="1160.6" y2="1419.6"/>
	<line class="st1" x1="1156" y1="1435.8" x2="1150.2" y2="1425.1"/>
	<line class="st1" x1="1145.4" y1="1441.3" x2="1139.7" y2="1430.5"/>
	<line class="st1" x1="1134.6" y1="1446.5" x2="1129.2" y2="1435.6"/>
	<line class="st1" x1="1123.8" y1="1451.6" x2="1118.5" y2="1440.6"/>
	<line class="st1" x1="1112.8" y1="1456.5" x2="1107.8" y2="1445.4"/>
	<line class="st1" x1="1101.8" y1="1461.1" x2="1097" y2="1450"/>
	<line class="st1" x1="1090.7" y1="1465.7" x2="1086.1" y2="1454.4"/>
	<line class="st1" x1="1079.6" y1="1470" x2="1075.1" y2="1458.6"/>
	<line class="st1" x1="1068.3" y1="1474.1" x2="1064" y2="1462.7"/>
	<line class="st1" x1="1057" y1="1478" x2="1052.9" y2="1466.5"/>
	<line class="st1" x1="1045.6" y1="1481.7" x2="1041.8" y2="1470.2"/>
	<line class="st1" x1="1034.2" y1="1485.3" x2="1030.5" y2="1473.7"/>
	<line class="st1" x1="1022.7" y1="1488.6" x2="1019.2" y2="1477"/>
	<line class="st1" x1="1011.2" y1="1491.8" x2="1007.9" y2="1480.1"/>
	<line class="st1" x1="999.6" y1="1494.7" x2="996.5" y2="1482.9"/>
	<line class="st1" x1="987.9" y1="1497.5" x2="985" y2="1485.6"/>
	<line class="st1" x1="976.2" y1="1500" x2="973.5" y2="1488.1"/>
	<line class="st1" x1="964.5" y1="1502.4" x2="962" y2="1490.5"/>
	<line class="st1" x1="952.7" y1="1504.5" x2="950.4" y2="1492.6"/>
	<line class="st1" x1="940.9" y1="1506.5" x2="938.8" y2="1494.5"/>
	<line class="st1" x1="929.1" y1="1508.2" x2="927.2" y2="1496.2"/>
	<line class="st1" x1="917.2" y1="1509.8" x2="915.5" y2="1497.7"/>
	<line class="st1" x1="905.3" y1="1511.1" x2="903.8" y2="1499"/>
	<line class="st1" x1="893.4" y1="1512.2" x2="892.1" y2="1500.1"/>
	<line class="st1" x1="881.4" y1="1513.2" x2="880.4" y2="1501"/>
	<line class="st1" x1="869.5" y1="1513.9" x2="868.7" y2="1501.7"/>
	<line class="st1" x1="857.5" y1="1514.4" x2="856.9" y2="1502.3"/>
	<line class="st1" x1="845.6" y1="1514.7" x2="845.1" y2="1502.6"/>
	<line class="st1" x1="833.6" y1="1514.9" x2="833.4" y2="1502.7"/>
	<line class="st1" x1="821.6" y1="1514.8" x2="821.6" y2="1502.6"/>
	<line class="st1" x1="809.7" y1="1514.5" x2="809.9" y2="1502.3"/>
	<line class="st1" x1="797.7" y1="1514" x2="798.1" y2="1501.8"/>
	<line class="st1" x1="785.8" y1="1513.3" x2="786.4" y2="1501.1"/>
	<line class="st1" x1="773.8" y1="1512.4" x2="774.6" y2="1500.2"/>
	<line class="st1" x1="761.9" y1="1511.3" x2="762.9" y2="1499.1"/>
	<line class="st1" x1="750" y1="1509.9" x2="751.2" y2="1497.8"/>
	<line class="st1" x1="738.1" y1="1508.4" x2="739.6" y2="1496.3"/>
	<line class="st1" x1="726.3" y1="1506.7" x2="727.9" y2="1494.6"/>
	<line class="st1" x1="714.5" y1="1504.8" x2="716.3" y2="1492.7"/>
	<line class="st1" x1="702.7" y1="1502.7" x2="704.7" y2="1490.7"/>
	<line class="st1" x1="690.9" y1="1500.3" x2="693.2" y2="1488.4"/>
	<line class="st1" x1="679.2" y1="1497.8" x2="681.7" y2="1485.9"/>
	<line class="st1" x1="667.6" y1="1495.1" x2="670.3" y2="1483.2"/>
	<line class="st1" x1="656" y1="1492.2" x2="658.9" y2="1480.3"/>
	<line class="st1" x1="644.4" y1="1489" x2="647.5" y2="1477.3"/>
	<line class="st1" x1="632.9" y1="1485.7" x2="636.2" y2="1474"/>
	<line class="st1" x1="621.5" y1="1482.2" x2="625" y2="1470.5"/>
	<line class="st1" x1="610.1" y1="1478.5" x2="613.8" y2="1466.9"/>
	<line class="st1" x1="598.8" y1="1474.6" x2="602.7" y2="1463"/>
	<line class="st1" x1="587.5" y1="1470.5" x2="591.6" y2="1459"/>
	<line class="st1" x1="576.4" y1="1466.2" x2="580.6" y2="1454.8"/>
	<line class="st1" x1="565.3" y1="1461.7" x2="569.7" y2="1450.4"/>
	<line class="st1" x1="554.2" y1="1457.1" x2="558.9" y2="1445.8"/>
	<line class="st1" x1="543.3" y1="1452.2" x2="548.1" y2="1441"/>
	<line class="st1" x1="532.4" y1="1447.2" x2="537.5" y2="1436.1"/>
	<line class="st1" x1="521.7" y1="1441.9" x2="526.9" y2="1430.9"/>
	<line class="st1" x1="511" y1="1436.5" x2="516.4" y2="1425.6"/>
	<line class="st1" x1="500.4" y1="1430.9" x2="506" y2="1420.1"/>
	<line class="st1" x1="489.9" y1="1425.2" x2="495.7" y2="1414.4"/>
	<line class="st1" x1="479.5" y1="1419.2" x2="485.5" y2="1408.6"/>
	<line class="st1" x1="469.3" y1="1413.1" x2="475.4" y2="1402.6"/>
	<line class="st1" x1="459.1" y1="1406.8" x2="465.4" y2="1396.4"/>
	<line class="st1" x1="449" y1="1400.3" x2="455.5" y2="1390"/>
	<line class="st1" x1="439.1" y1="1393.7" x2="445.7" y2="1383.5"/>
	<line class="st1" x1="429.2" y1="1386.8" x2="436.1" y2="1376.8"/>
	<line class="st1" x1="419.5" y1="1379.9" x2="426.5" y2="1369.9"/>
	<line class="st1" x1="409.9" y1="1372.7" x2="417.1" y2="1362.9"/>
	<line class="st1" x1="400.4" y1="1365.4" x2="407.8" y2="1355.7"/>
	<line class="st1" x1="391.1" y1="1357.9" x2="398.6" y2="1348.4"/>
	<line class="st1" x1="381.8" y1="1350.3" x2="389.5" y2="1340.9"/>
	<line class="st1" x1="372.7" y1="1342.5" x2="380.6" y2="1333.2"/>
	<line class="st1" x1="363.8" y1="1334.6" x2="371.8" y2="1325.4"/>
	<line class="st1" x1="355" y1="1326.5" x2="363.1" y2="1317.4"/>
	<line class="st1" x1="346.3" y1="1318.2" x2="354.6" y2="1309.3"/>
	<line class="st1" x1="337.7" y1="1309.8" x2="346.2" y2="1301.1"/>
	<line class="st1" x1="329.4" y1="1301.3" x2="338" y2="1292.7"/>
	<line class="st1" x1="321.1" y1="1292.6" x2="329.9" y2="1284.2"/>
	<line class="st1" x1="313" y1="1283.8" x2="321.9" y2="1275.5"/>
	<line class="st1" x1="305.1" y1="1274.9" x2="314.1" y2="1266.7"/>
	<line class="st1" x1="297.3" y1="1265.8" x2="306.5" y2="1257.8"/>
	<line class="st1" x1="289.6" y1="1256.6" x2="299" y2="1248.7"/>
	<line class="st1" x1="282.2" y1="1247.2" x2="291.6" y2="1239.5"/>
	<line class="st1" x1="274.8" y1="1237.7" x2="284.4" y2="1230.2"/>
	<line class="st1" x1="267.7" y1="1228.1" x2="277.4" y2="1220.8"/>
	<line class="st1" x1="260.7" y1="1218.4" x2="270.5" y2="1211.2"/>
	<line class="st1" x1="253.9" y1="1208.6" x2="263.8" y2="1201.6"/>
	<line class="st1" x1="247.2" y1="1198.6" x2="257.3" y2="1191.8"/>
	<line class="st1" x1="240.8" y1="1188.6" x2="250.9" y2="1181.9"/>
	<line class="st1" x1="234.5" y1="1178.4" x2="244.7" y2="1171.9"/>
	<line class="st1" x1="228.3" y1="1168.1" x2="238.7" y2="1161.8"/>
	<line class="st1" x1="222.4" y1="1157.7" x2="232.9" y2="1151.6"/>
	<line class="st1" x1="216.6" y1="1147.2" x2="227.2" y2="1141.3"/>
	<line class="st1" x1="211" y1="1136.7" x2="221.7" y2="1130.9"/>
	<line class="st1" x1="205.6" y1="1126" x2="216.4" y2="1120.4"/>
	<line class="st1" x1="200.3" y1="1115.2" x2="211.3" y2="1109.8"/>
	<line class="st1" x1="195.3" y1="1104.4" x2="206.3" y2="1099.1"/>
	<line class="st1" x1="190.4" y1="1093.4" x2="201.5" y2="1088.4"/>
	<line class="st1" x1="185.8" y1="1082.4" x2="196.9" y2="1077.6"/>
	<line class="st1" x1="181.3" y1="1071.3" x2="192.5" y2="1066.7"/>
	<line class="st1" x1="177" y1="1060.1" x2="188.3" y2="1055.7"/>
	<line class="st1" x1="172.9" y1="1048.9" x2="184.3" y2="1044.6"/>
	<line class="st1" x1="169" y1="1037.6" x2="180.5" y2="1033.5"/>
	<line class="st1" x1="165.3" y1="1026.2" x2="176.8" y2="1022.3"/>
	<line class="st1" x1="161.7" y1="1014.8" x2="173.3" y2="1011.1"/>
	<line class="st1" x1="158.4" y1="1003.3" x2="170.1" y2="999.8"/>
	<line class="st1" x1="155.3" y1="991.7" x2="167" y2="988.4"/>
	<line class="st1" x1="152.4" y1="980.1" x2="164.1" y2="977"/>
	<line class="st1" x1="149.6" y1="968.4" x2="161.5" y2="965.6"/>
	<line class="st1" x1="147.1" y1="956.7" x2="159" y2="954.1"/>
	<line class="st1" x1="144.8" y1="945" x2="156.7" y2="942.5"/>
	<line class="st1" x1="142.6" y1="933.2" x2="154.6" y2="931"/>
	<line class="st1" x1="140.7" y1="921.4" x2="152.7" y2="919.3"/>
	<line class="st1" x1="139" y1="909.6" x2="151" y2="907.7"/>
	<line class="st1" x1="137.5" y1="897.7" x2="149.5" y2="896"/>
	<line class="st1" x1="136.1" y1="885.8" x2="148.2" y2="884.4"/>
	<line class="st1" x1="135" y1="873.9" x2="147.1" y2="872.6"/>
	<line class="st1" x1="134.1" y1="861.9" x2="146.2" y2="860.9"/>
	<line class="st1" x1="133.4" y1="850" x2="145.6" y2="849.2"/>
	<line class="st1" x1="132.9" y1="838" x2="145.1" y2="837.4"/>
	<line class="st1" x1="132.6" y1="826.1" x2="144.8" y2="825.7"/>
</g>
</svg>
